<?xml version="1.0" encoding="UTF-8" standalone="no"?>
<!-- Created with Inkscape (http://www.inkscape.org/) -->

<svg
   version="1.1"
   id="svg2"
   width="3029.3333"
   height="2496"
   viewBox="0 0 3029.3333 2496"
   sodipodi:docname="06.ai"
   xmlns:inkscape="http://www.inkscape.org/namespaces/inkscape"
   xmlns:sodipodi="http://sodipodi.sourceforge.net/DTD/sodipodi-0.dtd"
   xmlns="http://www.w3.org/2000/svg"
   xmlns:svg="http://www.w3.org/2000/svg">
  <defs
     id="defs6">
    <pattern
       patternTransform="translate(-331,1341.5)"
       patternUnits="userSpaceOnUse"
       x="0"
       y="0"
       width="400"
       height="300"
       id="pattern184">
      <g
         transform="translate(455.4023,16.7676)"
         id="g14">
        <path
           d="m 0,0 -13.32,0 -0.376,0 -53.74,0 -0.375,0 -44.542,0 c 0.017,-1.212 0.117,-2.414 0.29,-3.607 l 44.252,0 0.375,0 53.74,0 0.376,0 12.876,0 C -0.24,-2.41 -0.094,-1.205 0,0"
           style="fill:#ffffff;fill-opacity:1;fill-rule:nonzero;stroke:none"
           id="path12" />
      </g>
      <g
         transform="translate(442.082,25.7871)"
         id="g18">
        <path
           d="m 0,0 -0.376,0 -39.911,0 c -0.715,-1.127 -1.434,-2.38 -1.986,-3.608 l 41.897,0 0.376,0 13.354,0 C 13.271,-2.389 13.14,-1.181 12.93,0 L 0,0 Z"
           style="fill:#ffffff;fill-opacity:1;fill-rule:nonzero;stroke:none"
           id="path16" />
      </g>
      <g
         transform="translate(442.082,7.749)"
         id="g22">
        <path
           d="m 0,0 -0.376,0 -53.739,0 -0.375,0 -42.962,0 c 0.403,-1.213 0.883,-2.416 1.423,-3.608 l 41.539,0 0.375,0 53.739,0 0.376,0 10.229,0 c 0.5,1.171 0.941,2.378 1.33,3.608 L 0,0 Z"
           style="fill:#ffffff;fill-opacity:1;fill-rule:nonzero;stroke:none"
           id="path20" />
      </g>
      <g
         transform="translate(385.9922,34.8066)"
         id="g26">
        <path
           d="m 0,0 -36.467,0 c -1.044,-1.114 -1.962,-2.326 -2.709,-3.608 l 40.776,0 0.375,0 2.289,0 C 2.933,-2.311 1.506,-1.103 0,0"
           style="fill:#ffffff;fill-opacity:1;fill-rule:nonzero;stroke:none"
           id="path24" />
      </g>
      <g
         transform="translate(387.5918,25.7871)"
         id="g30">
        <path
           d="m 0,0 -43.137,0 c -0.397,-1.213 -0.705,-2.415 -0.93,-3.608 l 44.067,0 0.375,0 9.116,0 C 9.329,-3.29 9.17,-2.971 8.988,-2.657 8.464,-1.751 7.891,-0.866 7.281,0 L 0.375,0 0,0 Z"
           style="fill:#ffffff;fill-opacity:1;fill-rule:nonzero;stroke:none"
           id="path28" />
      </g>
      <g
         transform="translate(357.502,40.2168)"
         id="g34">
        <path
           d="M 0,0 17.918,0 C 12.821,1.609 7.395,1.983 2.078,0.656 1.38,0.481 0.686,0.262 0,0"
           style="fill:#ffffff;fill-opacity:1;fill-rule:nonzero;stroke:none"
           id="path32" />
      </g>
      <g
         transform="translate(563.8437,13.584)"
         id="g38">
        <path
           d="M 0,0 -163.844,-163.844 -327.687,0 -163.844,163.843 0,0 Z"
           style="fill:none;stroke:#ffffff;stroke-opacity:1;stroke-width:2;stroke-linecap:butt;stroke-linejoin:miter;stroke-miterlimit:10;stroke-dasharray:none"
           id="path36" />
      </g>
      <g
         transform="translate(361.7793,-132.5645)"
         id="g42">
        <path
           d="M 0,0 -161.065,-161.065 -322.131,0 -161.065,161.064 0,0 Z"
           style="fill:none;stroke:#ffffff;stroke-opacity:1;stroke-width:2;stroke-linecap:butt;stroke-linejoin:miter;stroke-miterlimit:10;stroke-dasharray:none"
           id="path40" />
      </g>
      <g
         transform="translate(55.4023,16.7676)"
         id="g46">
        <path
           d="m 0,0 -13.32,0 -0.376,0 -53.74,0 -0.375,0 -44.542,0 c 0.017,-1.212 0.117,-2.414 0.29,-3.607 l 44.252,0 0.375,0 53.74,0 0.376,0 12.876,0 C -0.24,-2.41 -0.094,-1.205 0,0"
           style="fill:#ffffff;fill-opacity:1;fill-rule:nonzero;stroke:none"
           id="path44" />
      </g>
      <g
         transform="translate(42.082,34.8066)"
         id="g50">
        <path
           d="m 0,0 -0.376,0 -32.495,0 c -1.231,-1.13 -2.387,-2.336 -3.464,-3.608 l 35.959,0 0.376,0 11.414,0 C 10.915,-2.345 10.318,-1.139 9.626,0 L 0,0 Z"
           style="fill:#ffffff;fill-opacity:1;fill-rule:nonzero;stroke:none"
           id="path48" />
      </g>
      <g
         transform="translate(42.082,25.7871)"
         id="g54">
        <path
           d="m 0,0 -0.376,0 -39.911,0 c -0.715,-1.127 -1.434,-2.38 -1.986,-3.608 l 41.897,0 0.376,0 13.354,0 C 13.271,-2.389 13.14,-1.181 12.93,0 L 0,0 Z"
           style="fill:#ffffff;fill-opacity:1;fill-rule:nonzero;stroke:none"
           id="path52" />
      </g>
      <g
         transform="translate(39.4824,43.8252)"
         id="g58">
        <path
           d="m 0,0 -13.639,0 c -3.197,-0.76 -6.281,-2.005 -9.17,-3.608 l 25.033,0 0.376,0 4.847,0 C 5.375,-1.992 2.901,-0.752 0,0"
           style="fill:#ffffff;fill-opacity:1;fill-rule:nonzero;stroke:none"
           id="path56" />
      </g>
      <g
         transform="translate(42.082,7.749)"
         id="g62">
        <path
           d="m 0,0 -0.376,0 -53.739,0 -0.375,0 -42.962,0 c 0.403,-1.213 0.883,-2.416 1.423,-3.608 l 41.539,0 0.375,0 53.739,0 0.376,0 10.229,0 c 0.5,1.171 0.941,2.378 1.33,3.608 L 0,0 Z"
           style="fill:#ffffff;fill-opacity:1;fill-rule:nonzero;stroke:none"
           id="path60" />
      </g>
      <g
         transform="translate(163.8437,13.584)"
         id="g66">
        <path
           d="M 0,0 -163.844,-163.844 -327.687,0 -163.844,163.843 0,0 Z"
           style="fill:none;stroke:#ffffff;stroke-opacity:1;stroke-width:2;stroke-linecap:butt;stroke-linejoin:miter;stroke-miterlimit:10;stroke-dasharray:none"
           id="path64" />
      </g>
      <g
         transform="translate(442.082,298.7295)"
         id="g70">
        <path
           d="m 0,0 -0.376,0 -53.739,0 -0.375,0 -38.635,0 c 0.75,-1.212 1.558,-2.415 2.417,-3.607 l 36.218,0 0.375,0 53.739,0 0.376,0 4.57,0 c 0.127,0.144 0.259,0.286 0.385,0.431 C 5.812,-2.19 6.608,-1.125 7.346,0 L 0,0 Z"
           style="fill:#ffffff;fill-opacity:1;fill-rule:nonzero;stroke:none"
           id="path68" />
      </g>
      <g
         transform="translate(411,262.6533)"
         id="g74">
        <path
           d="m 0,0 -23.033,0 -0.375,0 -3.734,0 c 1.3,-1.213 2.563,-2.415 3.777,-3.608 l 0.332,0 18.978,0 C -2.751,-2.421 -1.383,-1.207 0,0"
           style="fill:#ffffff;fill-opacity:1;fill-rule:nonzero;stroke:none"
           id="path72" />
      </g>
      <g
         transform="translate(387.5918,280.6914)"
         id="g78">
        <path
           d="m 0,0 -23.382,0 c 1.247,-1.213 2.515,-2.415 3.794,-3.608 l 19.588,0 0.375,0 40.236,0 c 1.372,1.19 2.737,2.39 4.086,3.608 L 0.375,0 0,0 Z"
           style="fill:#ffffff;fill-opacity:1;fill-rule:nonzero;stroke:none"
           id="path76" />
      </g>
      <g
         transform="translate(387.5918,289.7109)"
         id="g82">
        <path
           d="m 0,0 -31.939,0 c 1.04,-1.213 2.119,-2.416 3.233,-3.608 l 28.706,0 0.375,0 50.094,0 C 51.686,-2.423 52.885,-1.22 54.066,0 L 0.375,0 0,0 Z"
           style="fill:#ffffff;fill-opacity:1;fill-rule:nonzero;stroke:none"
           id="path80" />
      </g>
      <g
         transform="translate(395.7812,250.0264)"
         id="g86">
        <path
           d="m 0,0 2.472,0 c 0.69,1.003 1.755,2.233 3.073,3.608 l -8.521,0 C -1.903,2.396 -0.906,1.193 0,0"
           style="fill:#ffffff;fill-opacity:1;fill-rule:nonzero;stroke:none"
           id="path84" />
      </g>
      <g
         transform="translate(387.9668,268.0645)"
         id="g90">
        <path
           d="m 0,0 29.377,0 c 1.551,1.3 3.025,2.52 4.348,3.608 l -33.725,0 -0.375,0 -13.668,0 C -12.698,2.395 -11.358,1.192 -10.033,0 L -0.375,0 0,0 Z"
           style="fill:#ffffff;fill-opacity:1;fill-rule:nonzero;stroke:none"
           id="path88" />
      </g>
      <g
         transform="translate(563.8437,313.584)"
         id="g94">
        <path
           d="M 0,0 -163.844,-163.844 -327.687,0 -163.844,163.843 0,0 Z"
           style="fill:none;stroke:#ffffff;stroke-opacity:1;stroke-width:2;stroke-linecap:butt;stroke-linejoin:miter;stroke-miterlimit:10;stroke-dasharray:none"
           id="path92" />
      </g>
      <g
         transform="translate(274.6641,177.4346)"
         id="g98">
        <path
           d="m 0,0 -17.725,0 -0.5,0 -71.5,0 -0.5,0 -59.262,0 c 0.022,-1.613 0.155,-3.213 0.383,-4.801 l 58.879,0 0.5,0 71.5,0 0.5,0 17.133,0 C -0.32,-3.207 -0.125,-1.604 0,0"
           style="fill:#ffffff;fill-opacity:1;fill-rule:nonzero;stroke:none"
           id="path96" />
      </g>
      <g
         transform="translate(256.9395,201.4346)"
         id="g102">
        <path
           d="m 0,0 -0.5,0 -43.234,0 c -1.637,-1.503 -3.176,-3.107 -4.61,-4.801 l 47.844,0 0.5,0 15.188,0 C 14.523,-3.119 13.73,-1.515 12.809,0 L 0,0 Z"
           style="fill:#ffffff;fill-opacity:1;fill-rule:nonzero;stroke:none"
           id="path100" />
      </g>
      <g
         transform="translate(256.9395,189.4346)"
         id="g106">
        <path
           d="m 0,0 -0.5,0 -53.102,0 c -0.951,-1.5 -1.908,-3.167 -2.642,-4.801 l 55.744,0 0.5,0 17.769,0 C 17.659,-3.178 17.483,-1.57 17.203,0 L 0,0 Z"
           style="fill:#ffffff;fill-opacity:1;fill-rule:nonzero;stroke:none"
           id="path104" />
      </g>
      <g
         transform="translate(253.4824,213.4346)"
         id="g110">
        <path
           d="m 0,0 -18.148,0 c -4.254,-1.012 -8.356,-2.668 -12.2,-4.801 l 33.305,0 0.5,0 6.451,0 C 7.15,-2.65 3.859,-1.001 0,0"
           style="fill:#ffffff;fill-opacity:1;fill-rule:nonzero;stroke:none"
           id="path108" />
      </g>
      <g
         transform="translate(256.9395,153.4346)"
         id="g114">
        <path
           d="m 0,0 -0.5,0 -71.5,0 -0.5,0 -51.403,0 c 0.999,-1.613 2.073,-3.214 3.215,-4.801 l 48.188,0 0.5,0 71.5,0 0.5,0 6.082,0 c 0.17,0.193 0.344,0.381 0.512,0.574 1.14,1.312 2.199,2.73 3.181,4.227 L 0,0 Z"
           style="fill:#ffffff;fill-opacity:1;fill-rule:nonzero;stroke:none"
           id="path112" />
      </g>
      <g
         transform="translate(256.9395,165.4346)"
         id="g118">
        <path
           d="m 0,0 -0.5,0 -71.5,0 -0.5,0 -57.161,0 c 0.537,-1.614 1.176,-3.214 1.893,-4.801 l 55.268,0 0.5,0 71.5,0 0.5,0 13.609,0 c 0.668,1.559 1.254,3.164 1.772,4.801 L 0,0 Z"
           style="fill:#ffffff;fill-opacity:1;fill-rule:nonzero;stroke:none"
           id="path116" />
      </g>
      <g
         transform="translate(182.3115,201.4346)"
         id="g122">
        <path
           d="m 0,0 -48.519,0 c -1.388,-1.481 -2.611,-3.095 -3.604,-4.801 l 54.251,0 0.5,0 3.046,0 C 3.903,-3.074 2.005,-1.466 0,0"
           style="fill:#ffffff;fill-opacity:1;fill-rule:nonzero;stroke:none"
           id="path120" />
      </g>
      <g
         transform="translate(184.4395,189.4346)"
         id="g126">
        <path
           d="m 0,0 -57.394,0 c -0.528,-1.613 -0.938,-3.213 -1.238,-4.801 l 58.632,0 0.5,0 12.129,0 c -0.215,0.424 -0.428,0.849 -0.668,1.266 C 11.262,-2.33 10.5,-1.152 9.689,0 L 0.5,0 0,0 Z"
           style="fill:#ffffff;fill-opacity:1;fill-rule:nonzero;stroke:none"
           id="path124" />
      </g>
      <g
         transform="translate(215.5859,105.4346)"
         id="g130">
        <path
           d="m 0,0 -30.646,0 -0.5,0 -4.967,0 c 1.73,-1.613 3.41,-3.214 5.024,-4.801 l 0.443,0 25.251,0 C -3.66,-3.221 -1.842,-1.605 0,0"
           style="fill:#ffffff;fill-opacity:1;fill-rule:nonzero;stroke:none"
           id="path128" />
      </g>
      <g
         transform="translate(184.4395,129.4346)"
         id="g134">
        <path
           d="m 0,0 -31.108,0 c 1.659,-1.614 3.344,-3.214 5.047,-4.801 l 26.061,0 0.5,0 53.534,0 c 1.826,1.583 3.642,3.18 5.437,4.801 L 0.5,0 0,0 Z"
           style="fill:#ffffff;fill-opacity:1;fill-rule:nonzero;stroke:none"
           id="path132" />
      </g>
      <g
         transform="translate(184.4395,141.4346)"
         id="g138">
        <path
           d="m 0,0 -42.494,0 c 1.383,-1.613 2.818,-3.215 4.302,-4.801 l 38.192,0 0.5,0 66.65,0 c 1.62,1.577 3.215,3.178 4.788,4.801 L 0.5,0 0,0 Z"
           style="fill:#ffffff;fill-opacity:1;fill-rule:nonzero;stroke:none"
           id="path136" />
      </g>
      <g
         transform="translate(195.3379,88.6338)"
         id="g142">
        <path
           d="m 0,0 3.287,0 c 0.92,1.335 2.336,2.972 4.089,4.801 l -11.337,0 C -2.533,3.188 -1.207,1.588 0,0"
           style="fill:#ffffff;fill-opacity:1;fill-rule:nonzero;stroke:none"
           id="path140" />
      </g>
      <g
         transform="translate(144.4062,208.6338)"
         id="g146">
        <path
           d="M 0,0 23.84,0 C 17.059,2.141 9.838,2.639 2.766,0.873 1.836,0.641 0.912,0.348 0,0"
           style="fill:#ffffff;fill-opacity:1;fill-rule:nonzero;stroke:none"
           id="path144" />
      </g>
      <g
         transform="translate(184.9395,112.6338)"
         id="g150">
        <path
           d="m 0,0 39.086,0 c 2.064,1.729 4.025,3.353 5.784,4.801 l -44.87,0 -0.5,0 -18.186,0 C -16.895,3.187 -15.112,1.587 -13.35,0 L -0.5,0 0,0 Z"
           style="fill:#ffffff;fill-opacity:1;fill-rule:nonzero;stroke:none"
           id="path148" />
      </g>
      <g
         transform="translate(361.7793,167.4355)"
         id="g154">
        <path
           d="M 0,0 -161.065,-161.065 -322.131,0 -161.065,161.064 0,0 Z"
           style="fill:none;stroke:#ffffff;stroke-opacity:1;stroke-width:2;stroke-linecap:butt;stroke-linejoin:miter;stroke-miterlimit:10;stroke-dasharray:none"
           id="path152" />
      </g>
      <g
         transform="translate(42.082,298.7295)"
         id="g158">
        <path
           d="m 0,0 -0.376,0 -53.739,0 -0.375,0 -38.635,0 c 0.75,-1.212 1.558,-2.415 2.417,-3.607 l 36.218,0 0.375,0 53.739,0 0.376,0 4.57,0 c 0.127,0.144 0.259,0.286 0.385,0.431 C 5.812,-2.19 6.608,-1.125 7.346,0 L 0,0 Z"
           style="fill:#ffffff;fill-opacity:1;fill-rule:nonzero;stroke:none"
           id="path156" />
      </g>
      <g
         transform="translate(11,262.6533)"
         id="g162">
        <path
           d="m 0,0 -23.033,0 -0.375,0 -3.734,0 c 1.3,-1.213 2.563,-2.415 3.777,-3.608 l 0.332,0 18.978,0 C -2.751,-2.421 -1.383,-1.207 0,0"
           style="fill:#ffffff;fill-opacity:1;fill-rule:nonzero;stroke:none"
           id="path160" />
      </g>
      <g
         transform="translate(-12.4082,280.6914)"
         id="g166">
        <path
           d="m 0,0 -23.382,0 c 1.247,-1.213 2.515,-2.415 3.794,-3.608 l 19.588,0 0.375,0 40.236,0 c 1.372,1.19 2.737,2.39 4.086,3.608 L 0.375,0 0,0 Z"
           style="fill:#ffffff;fill-opacity:1;fill-rule:nonzero;stroke:none"
           id="path164" />
      </g>
      <g
         transform="translate(-12.4082,289.7109)"
         id="g170">
        <path
           d="m 0,0 -31.939,0 c 1.04,-1.213 2.119,-2.416 3.233,-3.608 l 28.706,0 0.375,0 50.094,0 C 51.686,-2.423 52.885,-1.22 54.066,0 L 0.375,0 0,0 Z"
           style="fill:#ffffff;fill-opacity:1;fill-rule:nonzero;stroke:none"
           id="path168" />
      </g>
      <g
         transform="translate(-4.2187,250.0264)"
         id="g174">
        <path
           d="m 0,0 2.472,0 c 0.69,1.003 1.755,2.233 3.073,3.608 l -8.521,0 C -1.903,2.396 -0.906,1.193 0,0"
           style="fill:#ffffff;fill-opacity:1;fill-rule:nonzero;stroke:none"
           id="path172" />
      </g>
      <g
         transform="translate(-12.0332,268.0645)"
         id="g178">
        <path
           d="m 0,0 29.377,0 c 1.551,1.3 3.025,2.52 4.348,3.608 l -33.725,0 -0.375,0 -13.668,0 C -12.698,2.395 -11.358,1.192 -10.033,0 L -0.375,0 0,0 Z"
           style="fill:#ffffff;fill-opacity:1;fill-rule:nonzero;stroke:none"
           id="path176" />
      </g>
      <g
         transform="translate(163.8437,313.584)"
         id="g182">
        <path
           d="M 0,0 -163.844,-163.844 -327.687,0 -163.844,163.843 0,0 Z"
           style="fill:none;stroke:#ffffff;stroke-opacity:1;stroke-width:2;stroke-linecap:butt;stroke-linejoin:miter;stroke-miterlimit:10;stroke-dasharray:none"
           id="path180" />
      </g>
    </pattern>
  </defs>
  <sodipodi:namedview
     id="namedview4"
     pagecolor="#ffffff"
     bordercolor="#000000"
     borderopacity="0.25"
     inkscape:showpageshadow="2"
     inkscape:pageopacity="0.0"
     inkscape:pagecheckerboard="0"
     inkscape:deskcolor="#d1d1d1" />
  <g
     id="g8"
     inkscape:groupmode="layer"
     inkscape:label="06"
     transform="matrix(1.3333333,0,0,-1.3333333,0,2496)">
    <path
       d="M 0,0 H 2272 V 1872 H 0 Z"
       style="fill:#ffe1e3;fill-opacity:1;fill-rule:nonzero;stroke:none"
       id="path10" />
    <path
       d="M 0,0 H 2272 V 1872 H 0 Z"
       style="fill:url(#pattern184);fill-opacity:1;fill-rule:nonzero;stroke:none"
       id="path186" />
  </g>
</svg>
